<svg xmlns="http://www.w3.org/2000/svg" xmlns:xlink="http://www.w3.org/1999/xlink" width="484.707" height="593.256" viewBox="0 0 484.707 593.256">
  <defs>
    <clipPath id="clip-path">
      <rect id="Rectangle_49" data-name="Rectangle 49" width="187.005" height="187.005" transform="translate(857.442 509.1) rotate(-90)" fill="#ffbb9c"/>
    </clipPath>
    <clipPath id="clip-path-2">
      <rect id="Rectangle_49-2" data-name="Rectangle 49" width="187.005" height="187.005" transform="translate(1077.996 770.757) rotate(-90)" fill="#ffbb9c"/>
    </clipPath>
  </defs>
  <g id="bg-abstract" transform="translate(-855.293 -216.771)">
    <rect id="Rectangle_51" data-name="Rectangle 51" width="77.381" height="77.381" transform="translate(855.293 397.327) rotate(-90)" fill="#15dfbb"/>
    <g id="Kotak">
      <g id="Rectangle_49-3" data-name="Rectangle 49" clip-path="url(#clip-path)">
        <rect id="Rectangle_33" data-name="Rectangle 33" width="8.496" height="87.054" transform="translate(830.574 466.889) rotate(-45)" fill="#3048c1"/>
        <rect id="Rectangle_48" data-name="Rectangle 48" width="8.496" height="87.054" transform="translate(816.602 475.486) rotate(-45)" fill="#3048c1"/>
        <rect id="Rectangle_34" data-name="Rectangle 34" width="8.496" height="146.026" transform="translate(826.92 439.591) rotate(-45)" fill="#3048c1"/>
        <rect id="Rectangle_35" data-name="Rectangle 35" width="8.496" height="146.026" transform="translate(835.947 425.19) rotate(-45)" fill="#3048c1"/>
        <rect id="Rectangle_36" data-name="Rectangle 36" width="8.496" height="212.682" transform="translate(824.203 390.876) rotate(-45)" fill="#3048c1"/>
        <rect id="Rectangle_37" data-name="Rectangle 37" width="8.496" height="212.682" transform="translate(835.947 378.057) rotate(-45)" fill="#3048c1"/>
        <rect id="Rectangle_38" data-name="Rectangle 38" width="8.496" height="267.509" transform="translate(829.46 347.925) rotate(-45)" fill="#3048c1"/>
        <rect id="Rectangle_39" data-name="Rectangle 39" width="8.496" height="279.308" transform="translate(835.127 328.796) rotate(-45)" fill="#3048c1"/>
        <rect id="Rectangle_40" data-name="Rectangle 40" width="8.496" height="279.308" transform="translate(847.769 318.048) rotate(-45)" fill="#3048c1"/>
        <rect id="Rectangle_41" data-name="Rectangle 41" width="8.496" height="279.308" transform="translate(857.442 304.076) rotate(-45)" fill="#3048c1"/>
        <rect id="Rectangle_42" data-name="Rectangle 42" width="8.496" height="279.308" transform="translate(863.89 286.88) rotate(-45)" fill="#3048c1"/>
        <rect id="Rectangle_43" data-name="Rectangle 43" width="8.496" height="279.308" transform="translate(874.638 271.834) rotate(-45)" fill="#3048c1"/>
        <rect id="Rectangle_44" data-name="Rectangle 44" width="8.496" height="279.308" transform="translate(884.31 258.937) rotate(-45)" fill="#3048c1"/>
        <rect id="Rectangle_45" data-name="Rectangle 45" width="8.496" height="279.308" transform="translate(898.282 248.189) rotate(-45)" fill="#3048c1"/>
        <rect id="Rectangle_46" data-name="Rectangle 46" width="8.496" height="279.308" transform="translate(914.403 238.517) rotate(-45)" fill="#3048c1"/>
        <rect id="Rectangle_47" data-name="Rectangle 47" width="8.496" height="279.308" transform="translate(927.3 226.695) rotate(-45)" fill="#3048c1"/>
      </g>
    </g>
    <g id="Kotak-2" data-name="Kotak">
      <g id="Rectangle_49-4" data-name="Rectangle 49" clip-path="url(#clip-path-2)">
        <rect id="Rectangle_33-2" data-name="Rectangle 33" width="8.496" height="87.054" transform="translate(1051.128 728.546) rotate(-45)" fill="#3048c1"/>
        <rect id="Rectangle_48-2" data-name="Rectangle 48" width="8.496" height="87.054" transform="translate(1037.156 737.143) rotate(-45)" fill="#3048c1"/>
        <rect id="Rectangle_34-2" data-name="Rectangle 34" width="8.496" height="146.026" transform="translate(1047.474 701.248) rotate(-45)" fill="#3048c1"/>
        <rect id="Rectangle_35-2" data-name="Rectangle 35" width="8.496" height="146.026" transform="translate(1056.501 686.847) rotate(-45)" fill="#3048c1"/>
        <rect id="Rectangle_36-2" data-name="Rectangle 36" width="8.496" height="212.682" transform="translate(1044.757 652.533) rotate(-45)" fill="#3048c1"/>
        <rect id="Rectangle_37-2" data-name="Rectangle 37" width="8.496" height="212.682" transform="translate(1056.501 639.714) rotate(-45)" fill="#3048c1"/>
        <rect id="Rectangle_38-2" data-name="Rectangle 38" width="8.496" height="267.509" transform="translate(1050.014 609.582) rotate(-45)" fill="#3048c1"/>
        <rect id="Rectangle_39-2" data-name="Rectangle 39" width="8.496" height="279.308" transform="translate(1055.681 590.453) rotate(-45)" fill="#3048c1"/>
        <rect id="Rectangle_40-2" data-name="Rectangle 40" width="8.496" height="279.308" transform="translate(1068.323 579.705) rotate(-45)" fill="#3048c1"/>
        <rect id="Rectangle_41-2" data-name="Rectangle 41" width="8.496" height="279.308" transform="translate(1077.996 565.733) rotate(-45)" fill="#3048c1"/>
        <rect id="Rectangle_42-2" data-name="Rectangle 42" width="8.496" height="279.308" transform="translate(1084.444 548.537) rotate(-45)" fill="#3048c1"/>
        <rect id="Rectangle_43-2" data-name="Rectangle 43" width="8.496" height="279.308" transform="translate(1095.192 533.491) rotate(-45)" fill="#3048c1"/>
        <rect id="Rectangle_44-2" data-name="Rectangle 44" width="8.496" height="279.308" transform="translate(1104.864 520.594) rotate(-45)" fill="#3048c1"/>
        <rect id="Rectangle_45-2" data-name="Rectangle 45" width="8.496" height="279.308" transform="translate(1118.836 509.847) rotate(-45)" fill="#3048c1"/>
        <rect id="Rectangle_46-2" data-name="Rectangle 46" width="8.496" height="279.308" transform="translate(1134.957 500.174) rotate(-45)" fill="#3048c1"/>
        <rect id="Rectangle_47-2" data-name="Rectangle 47" width="8.496" height="279.308" transform="translate(1147.854 488.352) rotate(-45)" fill="#3048c1"/>
      </g>
    </g>
    <rect id="Rectangle_50" data-name="Rectangle 50" width="150.463" height="150.463" transform="translate(1039.073 659.564) rotate(-90)" fill="#2b374d"/>
    <rect id="Rectangle_52" data-name="Rectangle 52" width="150.463" height="150.463" transform="translate(1189.537 517.698) rotate(-90)" fill="#fdd231"/>
    <rect id="Rectangle_53" data-name="Rectangle 53" width="150.463" height="150.463" transform="translate(1044.447 367.235) rotate(-90)" fill="#fdd231"/>
    <rect id="Rectangle_54" data-name="Rectangle 54" width="150.463" height="150.463" transform="translate(893.983 810.027) rotate(-90)" fill="#15dfbb"/>
    <circle id="Ellipse_82" data-name="Ellipse 82" cx="24.719" cy="24.719" r="24.719" transform="translate(1094.959 316.722) rotate(-90)" fill="#fff"/>
    <circle id="Ellipse_83" data-name="Ellipse 83" cx="9.135" cy="9.135" r="9.135" transform="translate(1235.75 285.554) rotate(-90)" fill="#79fff7"/>
    <circle id="Ellipse_84" data-name="Ellipse 84" cx="9.135" cy="9.135" r="9.135" transform="translate(1235.75 235.041) rotate(-90)" fill="#79fff7"/>
    <circle id="Ellipse_85" data-name="Ellipse 85" cx="50.513" cy="50.513" r="50.513" transform="translate(1134.725 559.612) rotate(-90)" fill="#fff" opacity="0.5"/>
  </g>
</svg>
